<svg viewBox="0 0 315 315" xmlns="http://www.w3.org/2000/svg">
  <path d="M157.5,274.71115259220824C181.25425976234854,273.1438759010427,198.07425945860584,253.32249443064916,219.3283954071482,242.59948561014173C246.36343683727057,228.95992912947156,284.15904725249004,229.91391212649143,298.8146768391666,203.41592187183335C313.6093758170275,176.6664883509185,306.594099845966,140.1994799338286,290.25226061738414,114.36617580596794C275.135111135644,90.46887057332965,240.1632631241962,91.82764487957489,217.51488724792003,74.89659423284691C194.33410294605613,57.5675356200019,185.7078691909601,21.60345804538065,157.5,15.125715463072993C128.13147109591944,8.381435383857951,96.58800267991258,22.511196505254553,73.4482446299977,41.812683524862955C51.11198721958197,60.44394931181692,43.54384347474994,89.89012844725416,34.662552825821834,117.58769397814035C25.818740600899837,145.16837772394172,11.272933509996824,174.64329901503984,22.26298903291431,201.44116852287166C33.099933820752106,227.86569674135717,64.33387076644448,237.56378998776376,89.44548850346284,251.1689992303313C111.08020687595193,262.8904611227615,132.9474141413252,276.3311018522199,157.5,274.71115259220824" fill="#BABAD6" />
</svg>