<svg viewBox="0 0 270 270" xmlns="http://www.w3.org/2000/svg">
  <path d="M135,216.91060632538913C160.38505141573066,221.38002104789703,179.74927713043297,264.0310221432234,202.48412804749722,251.88593848274908C224.79737646217058,239.96607722121118,206.6888658341524,202.76320676497045,208.69005183128246,177.5449712613884C209.8343174985015,163.1253415438225,208.57593362730455,149.11026109077892,211.7595788743347,135C216.1231360903939,115.66024106781853,241.5759317797364,96.32896720733024,230.7640543783221,79.71059742598581C219.64805143333206,62.62477221988484,190.5413637765548,78.58477652427673,171.09041703829115,72.48956402333032C157.27853892494414,68.16142857209232,149.319273783813,51.81332473005334,135,49.701659082649996C120.15928218661898,47.5130959989027,106.62808280711269,56.77557884226333,92.19202052658571,60.85440458268078C72.98423638718714,66.28145268220594,40.5781505304857,58.34868232754163,35.80371083034064,77.72899574528516C30.223002492225838,100.3820992460778,62.09863812739328,114.88970582822822,73.92587246588218,134.99999999999997C79.21150735934269,143.987365055088,85.43263424425393,152.83125731128086,86.09242581826774,163.23680111923466C87.53785977832595,186.03267633993744,64.58515834846973,213.43171986220716,79.96960505234215,230.3154400099249C92.90606363114246,244.51260618373533,116.08388242368525,213.58014332952214,135,216.91060632538913" fill="#FF816C" />
</svg>