<svg viewBox="0 0 315 315" xmlns="http://www.w3.org/2000/svg">
  <path d="M157.5,291.3523372352267C180.96006809585947,273.6314456633477,168.7781939922342,232.48912750267573,187.9020758035879,210.1579399473747C198.28072751082007,198.03866311165677,219.6469718556026,208.31941788952807,234.20347039999146,201.7847692832136C260.0906644277953,190.1635874544015,307.649320052498,185.770309245969,305.20222036741103,157.5C302.6299654613553,127.78382533951755,250.82536548069217,135.24457549461243,226.90173383500635,117.43089028813235C214.7917371782852,108.41371131257917,211.49058491273092,92.25205123392193,201.90663037714194,80.58545999385875C187.88803137497837,63.52055597023495,178.9474558580375,38.214600177828814,157.5,32.947845528475376C136.71266699540237,27.84319426007824,109.54966678435714,36.88825475176401,98.42153269851298,55.173093000527814C86.07962897501434,75.45229807885782,114.82930175565845,105.53379094518563,101.40725954668525,125.1148411996949C86.07337628831252,147.48502406786102,39.40657902624628,132.76617072424185,28.280450018624276,157.49999999999997C19.289085407190758,177.48816273862542,54.153728296177036,192.1625973202119,62.04970730254469,212.6082521831043C71.94902953683588,238.2413149883185,58.87613956512871,274.1223170324095,80.0723372715023,291.60864575706495C100.32630469128458,308.3176582501065,136.54870715457562,307.17819022454415,157.5,291.3523372352267" fill="#3D5583" />
</svg>