<svg viewBox="0 0 315 315" xmlns="http://www.w3.org/2000/svg">
  <path d="M157.5,309.5508428456378C187.41280032446429,321.4418413191556,230.37739926414264,308.49021000822694,247.31146474432276,281.11487632512006C265.07844410698453,252.39306766298864,225.1061180699668,214.97618234902853,235.81603368290536,182.94642187441568C246.70641053496746,150.37696244483658,317.4890114915907,141.53817491992947,304.62993389265233,109.69458657283185C291.30619360207777,76.70033035248494,236.5459193692456,101.68169055473308,201.23299846349803,97.30669158684772C186.2713652166123,95.45306044181405,171.55451276212625,96.9213266121288,157.5,91.46632075920934C129.34068299420625,80.53678932111056,109.25756723104747,45.353645237889715,79.41501317433458,50.025235872924306C50.28323910186887,54.58556012265993,20.477627177560244,83.45011397646634,20.34727738349706,112.93637902992978C20.209352080513803,144.1362905493326,59.68824588379388,158.4217111746537,78.82689622371042,183.06244098069192C89.65053793511152,196.99771991578754,98.62182511581987,210.7288839022856,107.94104041996178,225.71205596332624C125.51695553201907,253.97011757685684,126.57572235849585,297.2577598095763,157.5,309.5508428456378" fill="#A4C4DB" />
</svg>