<svg viewBox="0 0 315 315" xmlns="http://www.w3.org/2000/svg">
  <path d="M157.5,253.399358788447C177.5970776821788,259.99253571707516,198.1244957731669,267.5517828286394,218.9697371216607,263.968707822619C243.72498270758155,259.71354472597216,272.2557718587007,252.743916306783,285.49557872974367,231.39828183469945C298.7047921496065,210.1019710901062,287.23401738892017,182.46117563147618,285.00783644471085,157.5C282.96719586872774,134.61920589818772,289.5702155259461,106.7070787486024,272.95972166140285,90.83929861822982C255.5188691338268,74.17828808773768,224.27531173115702,90.02484153974088,202.826097470097,78.99289627297284C183.01850911250094,68.8052862296354,179.5315024528856,28.17773233558189,157.5,31.455056641716507C133.66236359701114,35.001054712042496,134.56797504715146,72.72908402005834,119.3437410661136,91.41142089975483C110.59440310577872,102.14812393866525,93.24206123427297,104.50091877631463,87.64945963253388,117.17177171580258C82.11649152638188,129.7075162913018,96.68239899869141,145.44190176426076,90.17387419939041,157.49999999999997C73.88209000722925,187.68317365029324,13.058917520352354,201.97405188613502,24.40496932458517,234.34245178825213C34.64703979469604,263.56137644348206,84.95852346213704,225.67070407831093,115.60794309130866,230.0591709994201C131.70591842759706,232.36412271187908,142.0481261940057,248.33011740455686,157.5,253.399358788447" fill="#BABAD6" />
</svg>