<svg viewBox="0 0 315 315" xmlns="http://www.w3.org/2000/svg">
  <path d="M157.5,274.1974825838958C179.3322244877776,268.2185481438224,180.99085808427003,235.8245278809577,199.15687023531265,222.31935532924314C215.32377898554017,210.3003777746611,244.7017651951378,219.37411860427244,254.73854487310592,201.90735548995568C264.54856189637997,184.8352218982347,248.3522330806227,164.21881886950223,243.5094083223621,145.13371400389374C239.23187750512622,128.27637798867514,240.28696786020606,108.71643917877452,227.9746372452377,96.4333792078185C215.8303973247241,84.3180103219311,194.62951831744994,90.1844686139474,179.7948697043391,81.57064675523372C157.73586643138395,68.7619628740338,146.79091530907485,36.97479758014077,121.39841704870878,34.549299639085646C96.31699939162203,32.153516196975026,65.04431066945071,46.157488925987835,56.254194066178044,69.77000975904554C46.747602421185704,95.30716738732767,86.18126003930911,119.83810093446345,79.78761593855786,146.32664599736367C72.18825745427544,177.81040494422092,14.29415135564398,188.4373918572018,19.911878667896676,220.33438962566925C24.84421240902872,248.33977856490884,71.56858556647958,239.64253456145627,98.04820728247876,250.00879519630328C118.3825395480168,257.96929366417925,136.43850986244558,279.9653450760201,157.5,274.1974825838958" fill="#4263EC" />
</svg>