<svg viewBox="0 0 440 440" xmlns="http://www.w3.org/2000/svg">
  <path d="M220,378.73406850760256C243.7703868341177,370.69993042184717,268.6572138437904,366.13126058034953,288.95111281100645,351.3753692235725C307.85825480135435,337.627802354957,316.13408210913985,314.4779391092257,331.9927758915318,297.303031698513C350.75669872300926,276.98177184480414,379.25176596561096,265.77629104454854,391.0777455826175,240.7725991538348C404.09047934530014,213.25975064612172,413.46822813371796,179.12140756945536,401.0260326587165,151.345881566359C388.51671166953184,123.42050689158636,348.3755371555992,121.0406388784317,327.4445844093059,98.72013531177076C303.66300163721183,73.35975590050052,302.5877316127061,27.461165313665404,271.0775055159854,12.770413993086747C240.5024515817923,-1.484339767859998,201.21338751984902,9.037284196778714,172.27629315276076,26.377310074910262C144.61069509906727,42.95541498411096,142.64531053663964,84.07576722601885,117.78791403800645,104.62640510805869C91.63874804038394,126.24500226742074,37.40166700401436,114.49602770248192,26.73339448554718,146.70364461186708C15.836658087979073,179.60099616038687,69.49810480753355,203.36462998916528,73.68764617104975,237.76553617182813C77.87482310137133,272.1470276650427,40.62504787745029,304.0186297158268,49.954338884921555,337.3740451268469C59.10384071997696,370.0866525766263,88.3053919834217,400.0079401534531,121.3111492207491,408.0358950103051C155.14627644428688,416.26557663746115,187.01170185146304,389.88376263706505,220,378.73406850760256" fill="#BABAD6" />
</svg>