<svg viewBox="0 0 440 440" xmlns="http://www.w3.org/2000/svg">
  <path d="M220,343.3910269534127C253.88387142572557,352.7117564554873,291.15785853828004,395.42346729329324,318.75551572925536,373.6665819735754C347.7197941557552,350.8323073200078,301.3810855118929,297.60463115376666,319.1057111927668,265.26006177658576C339.3629220023958,228.29393497554193,406.4530748304269,231.8046919282986,418.61246141131016,191.44383913213937C429.74291540557886,154.49833927251836,404.8537119911573,108.93011538317367,372.5691120672193,87.79811184003917C340.2538493644721,66.64603786233323,297.3064201463169,81.68749647450069,259.0515441896889,87.00265429425697C233.73119930841463,90.52067979373093,214.03686215466698,110.07234837960779,188.6839246064759,113.34724166018121C155.85085563207343,117.58835954880811,114.45959994905664,84.80427085491053,91.49149341917885,108.64674517397577C69.05953132287732,131.93266469509877,105.1393335435126,170.86646759499502,102.25126448250137,203.0702876872287C99.6054899635445,232.5723684246159,64.8018496474782,258.3637598963061,75.59081783366075,285.94946373213406C86.2511403321216,313.2062406696705,123.72074594168751,316.68012118421916,150.9156107217279,327.4974080154504C173.3259620189018,336.41156147533843,196.7456010041608,336.99423834415796,220,343.3910269534127" fill="#4263EC" />
</svg>