<svg viewBox="0 0 315 315" xmlns="http://www.w3.org/2000/svg">
  <path d="M157.5,305.2028501126915C187.22060817572515,297.57142518216284,189.70300813724288,254.0212836386391,214.24315121296806,235.60024744009118C238.088979504731,217.70039800598423,292.1538416809337,231.81636135693995,294.8253401123148,202.11970779437388C297.80665009448705,168.9791569098205,240.26918936805367,164.71248384374627,223.1890847619827,136.15632253331896C212.24814619468415,117.86420935128362,230.51419529369582,91.3632922115462,218.1814720176522,73.9791190073261C204.76135832051338,55.062163221529005,180.6198113954675,45.41183977333967,157.5,43.56116722425213C133.2905261289558,41.62327041555337,111.01403527905875,52.73660245856567,89.32451926868922,63.664500901992945C63.394467861756816,76.72892190024547,27.01030987861542,84.64862659288616,20.017727397373875,112.82930174854509C12.952118199933835,141.30428049982044,48.45243572768914,162.08840143930158,58.020335724906424,189.8229022976149C67.30208919877876,216.72794935732853,56.14493129887103,249.86800291189945,74.72981254281464,271.4233895700798C94.67664763579798,294.5584173053972,127.91301638398545,312.7999639756177,157.5,305.2028501126915" fill="#DDCAB6" />
</svg>