<svg viewBox="0 0 440 440" xmlns="http://www.w3.org/2000/svg">
  <path d="M220,439.22098273618354C245.46306305959018,444.88672485295206,263.56900274961964,411.3445462500699,283.5323430617525,394.5536779672097C299.9562643913878,380.73976228866155,310.17516759699146,360.7057585081425,327.8398312930219,348.5185063682124C347.3914216776153,335.02942070805244,375.11807568111993,335.8657007088235,392.3275813363612,319.49337547334534C409.6686359548555,302.9959006575181,432.59002691284184,278.818354167199,424.9448413108089,256.1373050801104C414.7801937537116,225.98174284834798,360.110044363761,227.3924771677675,351.00469025188227,196.90033850923794C343.2832643456319,171.04271820342322,385.65489066442507,151.37483913580513,385.60306953894116,124.38902322306404C385.5581964098993,101.02137174031628,373.6585598408546,68.78699989161441,350.74982307391593,64.17842862060346C319.7766686547958,57.94753116515993,293.7494351431046,109.69941215895066,263.7235918850784,99.87041859829772C235.04217436852318,90.48152431619415,250.17011287779863,20.642932306560176,220,21.377326982716735C189.33113944994378,22.123862072027705,195.60983040824217,77.55782428886273,177.04435911728788,101.98034663654661C168.2484870590814,113.55114807446009,153.61057094493148,118.76074381082363,140.78017597192525,125.5894901098608C125.30114805333903,133.82792352006564,107.40190614495457,136.64666256127867,93.03147583991111,146.69468839756308C76.044849471894,158.57199874903134,47.89472251717421,169.12845490711106,48.903504507393016,189.83107153998913C50.06564799202839,213.68103245135006,96.9340810569668,217.70540610776177,97.65462672635876,241.57279027299123C98.54074339726097,270.92455505076646,50.86329545094171,287.2677360316497,52.72980164304661,316.57349404878914C54.14124860457571,338.734429428249,84.81665984408075,347.8013128948641,105.00888988373093,357.04106859745997C123.95362886716258,365.70998529029816,149.0369610641976,356.2851934888335,165.98721240874227,368.3989142687791C190.32704958886234,385.793700070832,190.7975185157579,432.72318909398825,220,439.22098273618354" fill="#4263EC" />
</svg>