<svg data-name="Layer 1" viewBox="0 0 508.33 508.36" xmlns="http://www.w3.org/2000/svg"><path d="M485 29.72c11.45 15.13 16.61 40.21 19.15 70.7 3.36 45.5 4.71 100.1 6 156.52-1.67 57.47-2.35 115.43-6 156.52-2.88 31.54-9 52.66-19.22 65.47-13 12.79-37.94 23.59-73.5 26.15-43.25 3.69-96.61 3.65-155.48 5.1-65.44-1.12-109.82-.64-156.38-5.08-36.32-2.52-60.08-13.19-74.7-26.07-10.83-14.54-14-30-17-66.24-3.75-41.85-4.58-98.56-6-155.54C4 200.57 4.13 143.44 7.9 100.74 10.43 67.05 14.42 44.4 24.65 30 39 17.77 63.48 11.69 100 8.69c50-5.85 102.06-7 155.88-6.87 55.39.09 108.56 1.67 156 6.34 32 2.56 58.48 8.07 73.07 21.56Z" transform="translate(-1.83 -1.82)" fill="#1ac8eb" fill-rule="evenodd" class="fill-0079bf"></path><rect height="174.84" rx="24.98" ry="24.98" width="124.89" x="273.14" y="109.81" fill="#ffffff" class="fill-ffffff"></rect><rect height="274.75" rx="24.98" ry="24.98" width="124.89" x="98.3" y="109.81" fill="#ffffff" class="fill-ffffff"></rect></svg>