<?xml version="1.0" ?><svg viewBox="0 0 512 512" xmlns="http://www.w3.org/2000/svg"><defs><style>.cls-1{fill:#0071af;}.cls-2{fill:#fda5a3;}.cls-3{fill:#d78d8b;}.cls-4{fill:#bebebe;}.cls-5{fill:#00b378;}.cls-6{fill:#dfdfdf;}.cls-7{fill:#f4f4f4;}.cls-8{fill:#096;}.cls-9{fill:#006095;}</style></defs><title/><g data-name="/ FLAT" id="_FLAT"><polygon class="cls-1" points="256 24 120 104 120 296 392 296 392 104 256 24"/><path class="cls-2" d="M492.89494,469.36962l-9.44574-56.67439a32,32,0,0,0-23.80346-25.7838L416,376V363.3137A27.31368,27.31368,0,0,1,424,344l0,0a27.31368,27.31368,0,0,0,8-19.31369V304a32,32,0,0,0-32-32H400a32,32,0,0,0-32,32V324.6863A27.31368,27.31368,0,0,0,376,344l0,0a27.31368,27.31368,0,0,1,8,19.31369V376l-43.64574,10.91143a32,32,0,0,0-23.80346,25.7838l-9.44574,56.67439A16,16,0,0,0,322.88737,488H477.11263A16,16,0,0,0,492.89494,469.36962Z"/><path class="cls-3" d="M492.895,469.36963,485.30237,423.814A112.007,112.007,0,0,1,384.00012,488h93.11243A16.0002,16.0002,0,0,0,492.895,469.36963Z"/><path class="cls-4" d="M325.65674,426.34277,271.4425,372.12842A15.89746,15.89746,0,0,0,264,354.158V296H248v58.158a15.89746,15.89746,0,0,0-7.4425,17.97046l-54.21424,54.21435,11.31348,11.31446,54.21472-54.21485a15.56237,15.56237,0,0,0,8.25708,0l54.21472,54.21485Z"/><path class="cls-2" d="M204.89494,469.36962l-9.44574-56.67439a32,32,0,0,0-23.80346-25.7838L128,376V363.31369A27.31367,27.31367,0,0,1,136,344l0,0a27.31368,27.31368,0,0,0,8-19.31369V304a32,32,0,0,0-32-32H112a32,32,0,0,0-32,32V324.6863A27.31368,27.31368,0,0,0,88,344l0,0a27.31368,27.31368,0,0,1,8,19.31369V376L52.35426,386.91143a32,32,0,0,0-23.80346,25.7838l-9.44574,56.67439A16,16,0,0,0,34.88737,488H189.11263A16,16,0,0,0,204.89494,469.36962Z"/><path class="cls-3" d="M204.895,469.36963,197.30237,423.814A112.007,112.007,0,0,1,96.00012,488h93.11243A16.0002,16.0002,0,0,0,204.895,469.36963Z"/><path class="cls-2" d="M357.16418,277.56714,347.327,213.62573a32.00019,32.00019,0,0,0-24.68616-26.37231L272,176V163.31372A27.31358,27.31358,0,0,1,280,144a27.314,27.314,0,0,0,8-19.31372V104a32,32,0,0,0-32-32h0a32,32,0,0,0-32,32v20.68628A27.314,27.314,0,0,0,232,144a27.31358,27.31358,0,0,1,8,19.31372V176l-50.64087,11.25342A32.00019,32.00019,0,0,0,164.673,213.62573l-9.83715,63.94141A16,16,0,0,0,170.64978,296H341.35022A16,16,0,0,0,357.16418,277.56714Z"/><path class="cls-5" d="M347.327,213.62573a32.00019,32.00019,0,0,0-24.68616-26.37231l-44.65271-9.92285a39.98911,39.98911,0,0,1-43.97632,0l-44.65271,9.92285A32.00019,32.00019,0,0,0,164.673,213.62573l-9.83715,63.94141A16,16,0,0,0,170.64978,296H341.35022a16,16,0,0,0,15.814-18.43286Z"/><path class="cls-2" d="M357.16418,277.56714,353.84619,256H158.15381l-3.318,21.56714A16,16,0,0,0,170.64978,296H341.35022A16,16,0,0,0,357.16418,277.56714Z"/><path class="cls-3" d="M357.16418,277.56714l-7.96276-51.75806A120.01685,120.01685,0,0,1,240.00012,296h101.3501A16,16,0,0,0,357.16418,277.56714Z"/><path class="cls-6" d="M304,216H208a16.00008,16.00008,0,0,0-16,16v64H320V232A16.00008,16.00008,0,0,0,304,216Z"/><rect class="cls-7" height="16" width="16" x="248" y="248"/><path class="cls-1" d="M171.64575,386.91138l-37.9469-9.48658a43.26,43.26,0,0,1-43.3977,0l-37.9469,9.48658a31.97512,31.97512,0,0,0-19.005,13.53833l7.4718,2.49072A22.19855,22.19855,0,0,1,56,424v64H168V424a22.19855,22.19855,0,0,1,15.179-21.05957l7.4718-2.49072A31.97512,31.97512,0,0,0,171.64575,386.91138Z"/><path class="cls-6" d="M152,416H72a16.00008,16.00008,0,0,0-16,16v56H168V432A16.00008,16.00008,0,0,0,152,416Z"/><rect class="cls-7" height="16" width="16" x="104" y="448"/><path class="cls-1" d="M489.33337,448l-5.88415-35.30469a32.00025,32.00025,0,0,0-23.80347-25.78393l-39.07434-9.76856L400,384l-20.57141-6.85718-39.07434,9.76856a32.00025,32.00025,0,0,0-23.80347,25.78393L310.66663,448Z"/><path class="cls-6" d="M440,416H360a16.00008,16.00008,0,0,0-16,16v56H456V432A16.00008,16.00008,0,0,0,440,416Z"/><rect class="cls-7" height="16" width="16" x="392" y="448"/><path class="cls-4" d="M240,296h80V232a15.97257,15.97257,0,0,0-.78076-4.92578A80.00221,80.00221,0,0,1,240,296Z"/><path class="cls-4" d="M96,488h72V432a15.95577,15.95577,0,0,0-.82739-5.053A72.01706,72.01706,0,0,1,96,488Z"/><path class="cls-4" d="M384,488h72V432a15.95577,15.95577,0,0,0-.82739-5.053A72.01706,72.01706,0,0,1,384,488Z"/><path class="cls-8" d="M353.84619,256l-4.64477-30.19092A120.139,120.139,0,0,1,329.41479,256Z"/><path class="cls-9" d="M489.33337,448l-4.031-24.186A112.09851,112.09851,0,0,1,469.76538,448Z"/></g></svg>