<?xml version="1.0" standalone="no"?>
<!DOCTYPE svg PUBLIC "-//W3C//DTD SVG 20010904//EN"
 "http://www.w3.org/TR/2001/REC-SVG-20010904/DTD/svg10.dtd">
<svg version="1.0" xmlns="http://www.w3.org/2000/svg"
 width="541.000000pt" height="541.000000pt" viewBox="0 0 541.000000 541.000000"
 preserveAspectRatio="xMidYMid meet">
<metadata>
Created by potrace 1.14, written by Peter Selinger 2001-2017
</metadata>
<g transform="translate(0.000000,541.000000) scale(0.100000,-0.100000)"
fill="#000000" stroke="none">
<path d="M2420 4884 c-608 -63 -1138 -347 -1505 -809 -209 -262 -360 -580
-429 -905 -22 -102 -28 -146 -42 -290 -4 -44 -4 -273 0 -320 10 -101 17 -163
25 -206 110 -573 393 -1035 840 -1371 264 -198 622 -355 916 -399 17 -3 39 -7
51 -9 92 -20 471 -28 582 -12 28 4 69 10 90 13 290 41 631 176 880 346 56 38
45 30 157 120 184 147 401 399 501 583 59 110 81 154 119 240 116 269 176 559
176 853 0 425 -125 845 -356 1193 -356 536 -902 876 -1550 966 -41 6 -412 11
-455 7z"/>
</g>
</svg>
